<svg width="19" height="15" viewBox="0 0 19 15" fill="none" xmlns="http://www.w3.org/2000/svg">
<path d="M9.28028 3.32217L3.00612 8.49455C3.00612 8.50185 3.00429 8.51259 3.00062 8.52723C2.99703 8.54175 2.99512 8.5523 2.99512 8.55979V13.7974C2.99512 13.9865 3.06426 14.1504 3.20249 14.2884C3.34069 14.4265 3.50435 14.4959 3.69349 14.4959H7.88345V10.3058H10.6772V14.4961H14.8671C15.0562 14.4961 15.2201 14.4268 15.3581 14.2884C15.4963 14.1505 15.5657 13.9865 15.5657 13.7974V8.55979C15.5657 8.53075 15.5617 8.50881 15.5547 8.49455L9.28028 3.32217Z" fill="#B7B8C5"/>
<path d="M17.9562 7.31606L15.5666 5.33012V0.878093C15.5666 0.776316 15.5339 0.692616 15.4682 0.627109C15.4031 0.561678 15.3194 0.528962 15.2174 0.528962H13.1224C13.0205 0.528962 12.9368 0.561678 12.8713 0.627109C12.8059 0.692616 12.7732 0.776354 12.7732 0.878093V3.00586L10.1108 0.779794C9.87828 0.590648 9.60181 0.496094 9.28168 0.496094C8.9616 0.496094 8.68516 0.590648 8.45241 0.779794L0.606604 7.31606C0.533873 7.37415 0.49401 7.45235 0.486596 7.55057C0.47922 7.64872 0.504635 7.73444 0.562919 7.80713L1.23944 8.61463C1.29772 8.68006 1.374 8.72007 1.4686 8.73471C1.55593 8.74205 1.64326 8.71652 1.73059 8.65835L9.28145 2.36206L16.8324 8.65831C16.8907 8.70907 16.967 8.73441 17.0616 8.73441H17.0943C17.1888 8.72004 17.2649 8.67975 17.3235 8.61447L18.0001 7.8071C18.0583 7.73425 18.0838 7.64868 18.0762 7.55042C18.0687 7.45246 18.0287 7.37427 17.9562 7.31606Z" fill="#B7B8C5"/>
</svg>
