<svg width="20" height="21" viewBox="0 0 20 21" fill="none" xmlns="http://www.w3.org/2000/svg">
<path d="M9.37529 0.811523C9.79221 0.811523 10.2091 0.811523 10.626 0.811523C10.9596 0.854285 11.2974 0.884219 11.6288 0.941947C14.0191 1.35888 16.0267 2.47282 17.5939 4.32442C19.5759 6.66777 20.3391 9.38529 19.8624 12.415C19.4476 15.0427 18.137 17.1765 16.0182 18.7822C13.8374 20.435 11.3615 21.07 8.6505 20.7172C6.65571 20.4585 4.90038 19.6417 3.3952 18.3054C1.65698 16.7617 0.570856 14.8438 0.156077 12.5539C0.0897975 12.1841 0.0513129 11.8099 0 11.4357C0 11.0188 0 10.6019 0 10.1849C0.0427607 9.85139 0.0769693 9.51571 0.132558 9.18217C0.485334 7.1018 1.39828 5.30153 2.87994 3.80058C4.37656 2.28681 6.17679 1.33536 8.27634 0.965466C8.63981 0.901323 9.00755 0.862838 9.37529 0.811523ZM9.17004 8.51508C9.17004 9.38101 9.17645 10.2469 9.16576 11.1129C9.16149 11.4357 9.27266 11.6837 9.4993 11.9104C10.8249 13.2274 12.144 14.5509 13.4654 15.8701C13.5167 15.9214 13.5658 15.9728 13.6193 16.0198C14.0939 16.4282 14.8102 16.2058 14.9705 15.5986C15.0582 15.2608 14.9427 14.9892 14.7033 14.7519C13.4632 13.514 12.2274 12.2739 10.9852 11.0402C10.8676 10.9247 10.8249 10.8093 10.827 10.6489C10.8356 10.1422 10.8313 9.63331 10.8313 9.12658C10.8313 8.04684 10.8292 6.96496 10.8334 5.88523C10.8334 5.61796 10.7672 5.38063 10.564 5.20103C10.3011 4.96798 9.99532 4.91453 9.67462 5.05351C9.35391 5.19034 9.17859 5.44905 9.17645 5.80398C9.1679 6.70412 9.17004 7.60853 9.17004 8.51508Z" fill="#686877"/>
</svg>
